<?xml version="1.0" encoding="UTF-8" standalone="no"?>
<svg xmlns:ffdec="https://www.free-decompiler.com/flash" xmlns:xlink="http://www.w3.org/1999/xlink" ffdec:objectType="shape" height="215.1px" width="213.7px" xmlns="http://www.w3.org/2000/svg">
  <g transform="matrix(1.0, 0.0, 0.0, 1.0, -177.85, -92.45)">
    <path d="M329.85 183.45 L330.15 184.1 329.65 184.9 Q327.35 188.65 325.1 190.5 L320.05 189.75 Q321.95 185.3 323.2 180.9 325.05 174.35 324.65 170.15 324.1 164.3 320.2 156.4 323.7 159.15 326.15 162.4 329.7 167.0 330.1 175.45 330.3 179.7 329.8 183.1 L329.85 183.45 M331.7 174.3 Q331.1 166.15 327.5 161.4 324.35 157.35 320.65 154.65 318.4 153.0 315.15 151.5 320.8 148.3 326.65 147.95 336.6 147.35 346.0 154.45 358.2 163.6 359.4 176.85 359.55 178.55 360.1 179.6 360.75 180.9 361.7 180.85 362.5 180.8 362.55 180.2 362.85 178.7 364.35 178.2 L366.1 178.3 Q367.9 180.5 368.25 181.4 368.6 182.05 368.65 183.25 368.65 184.05 369.35 184.15 L370.25 184.35 371.85 186.2 373.4 187.65 Q374.15 187.25 373.75 186.55 L372.85 184.1 Q372.05 181.55 372.35 181.05 372.45 180.75 373.0 180.75 374.9 180.85 379.05 182.35 L379.25 182.45 379.2 182.45 379.8 182.65 383.9 184.25 385.8 188.85 Q387.1 193.6 385.95 199.1 384.7 204.95 381.7 208.8 L378.5 212.2 Q372.85 212.85 367.6 212.4 356.75 211.4 348.75 205.8 340.75 200.2 335.6 191.7 334.35 189.65 331.4 183.1 332.0 178.9 331.7 174.3 M331.05 197.9 L328.4 192.05 330.75 185.35 334.7 193.55 Q341.05 204.45 349.1 210.6 L345.15 209.55 340.85 208.15 Q335.2 205.15 331.05 197.9 M379.4 174.55 L380.3 175.9 382.2 179.65 380.8 180.95 380.45 180.85 378.6 178.1 Q376.45 175.45 373.85 173.3 L373.35 172.95 377.1 173.55 379.4 174.55 M370.75 180.75 Q368.5 176.8 366.85 174.7 369.75 172.7 372.45 174.95 375.35 177.3 376.35 179.7 L373.05 179.2 Q371.6 179.15 371.0 180.15 L370.75 180.75 M387.8 186.85 Q389.0 187.45 390.25 188.65 L391.45 189.7 391.55 194.25 389.35 194.95 Q388.4 195.25 388.15 195.45 388.65 190.55 387.8 186.85 M389.65 218.0 Q388.45 223.05 385.55 223.3 382.8 223.65 381.45 221.6 379.7 219.05 379.5 214.15 381.55 215.05 383.6 211.4 385.7 207.6 387.5 199.45 L388.05 196.3 389.65 206.3 Q390.85 213.05 389.65 218.0 M270.2 97.35 Q273.15 97.85 275.45 101.1 L278.3 104.85 Q280.2 105.75 282.2 108.85 283.65 111.15 284.6 113.6 286.45 118.1 284.95 125.1 284.25 128.7 283.15 131.35 282.4 126.95 279.5 124.05 L277.3 122.0 275.7 120.75 278.55 118.2 Q280.15 116.35 279.95 114.95 279.75 112.7 278.45 111.25 276.75 109.25 273.5 109.55 272.45 109.65 269.75 110.7 267.4 111.7 266.6 111.45 L262.95 107.55 Q259.9 104.1 258.0 104.85 L254.55 106.9 252.1 108.2 250.25 108.35 248.9 107.65 246.75 106.7 Q245.65 106.45 244.0 107.3 243.0 107.8 240.6 110.6 L238.05 113.5 Q236.45 114.8 234.8 115.05 232.9 115.35 231.7 114.1 229.9 112.25 229.35 109.4 228.8 106.6 229.7 104.5 230.3 102.9 231.7 101.6 231.45 103.5 232.65 104.5 234.25 105.9 236.4 105.75 238.5 105.5 240.15 103.8 244.9 98.85 246.55 98.4 248.0 98.15 250.45 99.0 L253.4 98.9 255.2 96.55 Q257.95 92.6 259.2 92.45 260.65 92.35 263.0 94.05 L264.3 95.15 Q265.05 95.8 265.8 96.05 L270.2 97.35 M230.95 114.85 Q231.95 115.85 233.1 116.25 L230.25 121.7 230.05 121.25 Q229.0 119.3 228.85 118.25 228.6 116.2 229.25 115.0 229.95 113.8 230.95 114.85 M241.7 111.5 Q244.1 108.7 244.85 108.25 246.45 107.55 249.25 109.45 250.7 110.1 252.4 109.8 L255.45 108.65 259.65 108.45 Q262.05 109.25 264.05 111.6 264.95 112.75 266.45 112.7 L268.95 112.15 273.3 111.4 Q276.1 111.15 277.2 114.25 278.3 117.6 274.05 119.75 L273.55 120.25 Q273.25 120.7 273.95 121.1 276.75 122.85 278.55 124.6 282.35 128.5 282.15 133.25 280.8 129.6 278.4 126.5 275.45 123.2 274.45 122.85 273.8 122.55 273.5 123.0 273.2 123.45 273.7 123.75 L274.95 124.85 277.45 127.35 Q279.7 129.6 281.8 134.35 L281.5 135.25 280.25 132.85 277.7 129.25 Q275.9 127.4 274.45 126.75 273.85 126.5 273.75 127.15 273.6 127.8 274.35 128.25 275.9 129.2 276.75 130.2 278.7 132.4 281.1 136.25 L280.9 136.65 280.05 136.8 Q279.3 137.15 279.85 138.0 283.45 141.0 281.3 145.2 279.1 149.25 274.6 148.55 269.7 156.55 263.15 160.45 261.35 161.5 263.45 161.35 265.5 161.3 268.05 159.65 267.35 169.6 259.5 171.1 256.55 171.65 253.95 170.6 251.4 169.6 251.05 167.85 L254.35 167.35 Q256.9 166.7 256.7 166.25 L253.65 166.35 Q249.35 166.3 244.1 163.75 235.0 159.4 230.95 149.15 227.1 139.35 229.5 129.05 231.1 122.25 234.95 116.45 236.85 116.25 239.15 114.55 L241.7 111.5 M239.8 116.35 L235.85 118.6 Q235.45 118.85 235.45 119.05 L236.0 119.2 240.05 119.2 Q240.6 119.2 240.85 118.85 241.2 118.45 241.15 117.95 L241.0 116.95 Q241.0 116.45 240.6 116.3 L239.8 116.35 M202.5 146.15 Q200.5 147.85 199.45 151.7 198.45 155.3 199.35 159.9 L199.9 162.15 198.4 163.4 Q195.1 165.75 191.7 166.4 L187.5 166.85 Q185.7 166.85 185.4 166.35 185.05 165.6 186.45 164.1 L189.55 161.45 191.65 159.75 Q192.5 158.8 192.5 157.85 192.5 156.2 190.2 154.5 L185.45 151.2 Q177.2 145.9 177.9 144.5 178.4 143.6 181.65 143.9 184.8 144.2 188.35 145.4 188.95 145.55 189.3 145.0 189.55 144.4 189.1 143.95 186.55 142.1 184.55 139.8 182.0 137.05 182.0 135.65 181.95 135.2 182.3 134.85 183.65 133.75 187.35 136.1 190.2 138.0 192.75 140.7 193.3 141.2 193.8 140.7 194.35 140.25 193.95 139.6 L191.95 136.35 Q190.75 133.95 191.05 132.6 191.2 131.9 191.95 131.55 193.4 130.85 197.4 135.45 200.85 139.5 204.35 145.3 203.9 145.45 202.5 146.15 M205.25 147.45 L213.4 148.7 Q222.3 149.7 226.2 148.35 L227.9 147.8 228.55 149.65 Q230.45 154.4 233.5 157.95 232.85 161.75 234.55 166.35 L234.75 166.65 Q226.95 167.65 218.95 166.35 211.75 165.15 206.8 163.0 L203.25 161.2 Q202.6 160.45 202.25 159.05 201.35 156.2 202.2 152.9 203.05 149.85 204.2 148.35 L205.25 147.45 M238.9 125.35 Q238.45 124.3 237.7 124.25 236.9 124.25 236.35 125.2 235.7 126.15 235.6 127.55 235.55 128.95 236.0 130.0 236.5 131.05 237.25 131.05 238.0 131.1 238.55 130.15 239.2 129.15 239.3 127.75 239.35 126.35 238.9 125.35 M241.05 135.35 L241.2 136.2 243.3 139.6 Q244.2 140.75 245.65 140.0 L246.15 139.6 Q246.3 139.3 246.05 139.0 L244.35 136.4 Q243.8 135.55 244.3 134.7 L246.5 130.85 248.15 127.45 248.7 125.8 Q249.0 124.85 248.5 124.8 248.0 124.65 247.55 125.55 L245.4 129.55 Q244.45 131.15 241.35 134.6 241.05 134.9 241.05 135.35 M232.6 146.0 L234.55 149.4 Q235.1 150.2 235.1 149.3 L235.1 148.8 Q235.1 148.4 235.45 148.2 L236.1 148.1 239.2 150.05 Q242.9 152.05 245.95 152.2 249.0 152.35 254.2 149.6 L258.65 146.85 Q259.05 146.65 259.5 146.85 L260.15 147.35 260.1 149.65 Q260.6 150.45 260.85 149.5 L261.95 145.05 Q262.15 144.05 261.35 143.55 L256.45 139.8 256.0 139.7 Q255.85 139.85 256.0 140.2 L256.55 141.75 Q256.7 142.15 256.35 142.55 256.0 143.0 255.55 143.1 248.6 145.35 245.2 145.6 L239.35 145.1 236.05 144.35 235.4 143.95 Q235.1 143.55 235.15 143.2 L235.2 142.5 Q235.25 142.1 235.1 142.05 234.9 141.95 234.65 142.25 L232.75 144.4 Q232.1 145.15 232.6 146.0 M234.9 146.1 Q234.75 145.2 236.0 145.3 L239.35 146.0 245.65 146.6 Q249.65 146.4 256.0 144.15 L257.05 144.0 Q257.75 143.95 258.4 144.45 259.05 144.95 258.65 145.6 L257.75 146.2 Q252.2 149.0 250.1 149.6 L245.95 150.1 241.95 149.6 235.85 147.25 Q235.15 147.05 234.9 146.1 M242.45 154.5 L244.05 155.4 247.1 155.5 Q247.55 155.4 247.8 155.05 L248.0 154.3 247.6 153.7 246.75 153.5 242.6 153.85 Q241.6 153.9 242.45 154.5 M242.45 166.65 Q245.7 174.0 252.85 178.95 256.3 181.35 259.15 182.2 L262.6 185.8 Q266.6 189.6 270.65 191.9 258.25 191.3 246.4 179.1 242.7 175.3 239.55 170.75 L237.05 166.95 Q235.85 163.65 236.15 160.6 238.5 162.6 241.45 164.1 L242.45 166.65 M260.5 116.05 L259.8 115.9 259.25 116.35 258.5 117.3 Q257.8 118.3 258.0 118.55 L258.9 119.05 Q259.95 119.5 260.7 119.9 L262.85 121.25 264.3 121.9 Q264.65 120.65 262.65 118.25 L260.5 116.05 M262.15 132.45 L264.85 130.15 Q263.6 128.45 261.6 127.3 257.6 125.0 254.0 127.8 258.25 127.7 260.6 130.05 261.8 131.25 262.15 132.45 M274.05 131.95 L275.95 133.35 277.5 135.1 Q278.3 136.1 278.45 135.6 L278.0 134.25 276.8 132.5 Q275.75 131.3 274.4 130.7 273.95 130.5 273.65 131.0 273.35 131.5 274.05 131.95 M274.45 134.55 Q274.0 134.35 273.65 134.75 273.35 135.3 273.8 135.55 L274.45 136.2 Q275.15 136.85 275.15 137.3 275.25 137.85 275.8 137.85 276.4 137.85 276.35 137.1 276.3 136.4 275.65 135.55 275.05 134.8 274.45 134.55 M281.85 148.6 Q279.7 153.15 278.6 157.15 L278.3 157.95 Q276.45 166.3 273.0 171.7 L269.85 176.65 Q269.5 179.4 280.5 187.4 L283.7 189.9 286.95 191.85 274.35 192.4 Q268.45 189.65 263.0 184.1 L258.55 179.05 258.2 178.8 Q249.9 176.5 243.75 165.85 L243.25 164.9 243.85 165.15 Q245.8 169.35 249.9 171.9 254.05 174.45 258.35 174.1 269.1 173.2 270.9 157.1 275.2 152.75 276.8 150.3 279.65 150.7 281.85 148.6 M280.1 157.6 Q281.25 150.95 284.85 148.95 L285.85 148.5 Q286.65 149.05 286.35 150.05 L285.15 152.65 Q282.55 157.6 282.7 162.65 282.85 169.6 285.9 177.9 287.2 181.65 288.5 187.0 L289.05 189.7 Q284.5 188.4 281.45 186.15 277.8 183.4 275.4 181.05 272.7 178.4 272.6 177.1 272.55 176.85 275.75 170.95 279.25 164.5 279.9 158.35 L280.1 157.6 M309.6 168.8 Q310.05 171.6 311.6 176.65 313.15 181.95 313.6 185.35 314.05 189.1 313.65 194.15 313.2 201.05 310.1 217.95 309.8 218.75 308.45 219.3 L300.6 219.65 Q295.45 218.75 292.2 217.35 L290.05 216.3 Q293.1 203.15 293.4 196.85 293.5 194.45 291.65 187.75 290.15 182.15 288.2 176.8 286.95 173.3 286.1 169.3 L284.95 162.45 Q284.15 156.8 287.0 152.8 289.2 149.8 292.15 148.9 293.45 148.5 297.25 148.85 L300.9 149.7 Q307.65 151.3 311.2 151.6 L312.3 151.7 316.7 153.95 317.05 154.15 Q319.9 160.2 321.3 166.0 322.85 172.7 318.0 189.75 L316.55 189.55 Q316.3 185.3 315.4 181.35 L314.0 176.35 311.8 168.7 Q310.9 165.7 311.15 164.5 L309.6 164.1 Q309.15 165.9 309.6 168.8 M299.95 222.2 L307.05 222.8 Q308.65 227.6 306.7 230.45 304.95 232.95 305.4 234.95 305.6 235.6 306.3 235.5 306.95 235.4 306.95 234.7 307.0 232.95 308.55 231.8 L309.05 231.95 Q310.0 232.55 310.35 234.0 310.75 235.7 309.4 236.85 L307.35 238.05 305.3 238.15 303.65 236.85 Q302.45 235.3 301.5 233.0 301.25 232.3 300.5 232.55 299.75 232.8 300.0 233.55 L300.6 235.0 Q301.35 236.65 302.35 237.8 303.35 239.0 304.1 239.6 L302.35 240.95 299.6 241.0 Q298.25 240.55 296.9 238.95 295.85 237.75 295.35 236.7 295.0 236.0 294.3 236.35 293.6 236.6 293.85 237.35 L294.75 240.15 Q295.6 243.2 295.45 245.0 295.4 246.3 294.4 247.85 293.4 249.3 292.1 250.2 290.8 251.0 289.95 250.65 289.25 250.4 289.2 249.9 289.1 249.3 289.7 247.65 290.9 244.45 291.7 239.85 292.7 234.05 292.25 229.4 291.9 225.7 292.4 222.85 292.65 221.45 293.05 220.6 L299.95 222.2 M295.2 256.4 L292.15 259.45 Q291.85 259.95 292.25 260.45 L293.8 261.4 Q295.4 262.8 295.5 265.35 L295.55 272.95 Q295.55 273.6 296.2 273.7 296.95 273.7 298.1 274.6 300.0 276.15 300.65 279.25 L301.0 283.0 Q296.55 285.3 294.0 285.3 L289.6 284.5 286.55 284.6 Q286.1 285.4 286.55 294.5 L287.1 303.5 289.15 304.35 294.9 304.7 Q298.7 304.15 300.7 303.1 L300.6 304.7 Q300.55 305.65 299.1 306.4 296.85 307.55 291.9 307.55 285.6 307.55 282.35 304.3 L282.05 303.8 282.0 303.6 282.0 303.5 Q280.85 284.7 282.0 279.25 282.65 276.15 285.5 274.7 L288.25 273.85 288.65 273.65 288.9 273.05 Q287.65 269.85 287.8 265.5 287.9 262.95 288.7 260.45 L289.5 258.4 Q289.9 258.0 289.65 257.55 L288.75 257.65 287.95 257.6 Q287.9 256.7 288.8 255.35 L289.65 253.95 Q289.5 253.3 288.85 253.3 287.95 253.3 287.6 252.9 L287.45 252.15 Q287.55 251.45 287.9 251.35 L288.1 251.3 289.4 252.2 Q291.8 253.0 293.5 251.95 L294.3 251.3 294.45 251.35 Q295.1 251.5 295.2 252.15 L295.05 252.9 Q294.65 253.3 293.75 253.3 293.1 253.3 293.0 253.95 292.9 254.6 293.55 254.75 L294.45 255.0 Q295.25 255.45 295.2 256.4 M294.0 273.55 L292.3 273.6 290.6 273.55 Q289.85 273.55 289.85 273.9 289.85 274.3 290.6 274.7 L292.3 275.15 Q293.25 275.15 294.0 274.7 294.7 274.3 294.7 273.9 294.7 273.55 294.0 273.55 M288.05 286.5 L289.85 286.45 294.2 286.4 301.1 285.15 300.85 299.9 Q297.65 301.35 295.05 301.65 L290.9 301.8 Q288.9 301.75 288.8 301.35 L288.2 293.85 Q287.75 286.75 288.05 286.5" fill="#ffffff" fill-rule="evenodd" stroke="none"/>
  </g>
</svg>
