<?xml version="1.0" encoding="UTF-8" standalone="no"?>
<svg xmlns:ffdec="https://www.free-decompiler.com/flash" xmlns:xlink="http://www.w3.org/1999/xlink" ffdec:objectType="shape" height="219.75px" width="113.2px" xmlns="http://www.w3.org/2000/svg">
  <g transform="matrix(1.0, 0.0, 0.0, 1.0, -258.15, -89.7)">
    <path d="M305.25 299.85 Q308.3 305.75 306.4 308.65 L306.3 308.9 304.45 309.4 Q302.2 309.75 299.3 308.05 297.55 307.1 294.75 304.75 L305.1 299.95 305.25 299.85 M304.15 294.75 Q300.95 289.5 297.55 285.15 302.7 286.9 307.3 292.2 311.0 296.45 313.85 302.35 L312.7 303.7 309.15 307.15 Q309.3 304.45 307.4 300.5 306.55 298.65 304.15 294.75 M280.15 287.3 Q278.2 283.45 279.3 281.4 280.35 279.5 283.95 279.7 286.6 279.85 289.1 280.85 292.05 282.05 294.65 284.15 298.05 288.4 301.55 293.75 L304.15 297.85 292.8 303.05 Q287.8 298.55 283.55 292.65 280.9 288.85 280.15 287.3 M268.25 219.95 L267.4 220.25 268.45 226.1 Q269.45 231.15 268.85 231.55 268.45 231.75 266.95 230.85 263.75 228.95 262.95 223.25 262.65 221.0 262.85 217.15 262.85 216.4 262.0 216.35 261.1 216.3 260.85 216.95 260.1 218.65 260.9 223.7 261.95 230.3 265.9 232.6 268.05 233.85 269.4 233.45 L269.55 233.9 270.7 236.1 Q271.0 236.5 270.9 237.15 270.8 237.9 270.25 238.2 268.8 239.05 265.65 236.6 L264.65 235.8 263.8 234.8 Q261.75 232.15 260.3 229.2 258.15 224.75 258.15 220.75 258.1 215.1 262.95 206.65 264.6 212.65 269.05 214.9 L270.6 215.6 Q270.6 217.9 269.45 219.15 L268.25 219.95 M269.65 221.55 Q272.05 220.4 272.3 216.2 273.9 216.75 275.2 216.75 L275.0 218.45 274.1 220.9 272.8 222.9 275.7 227.25 Q278.15 231.2 277.45 231.8 276.4 232.7 274.55 230.75 L272.4 228.35 272.2 228.35 272.1 228.35 Q272.0 228.7 273.75 231.7 275.3 234.45 274.3 235.3 272.85 236.5 269.9 233.25 L270.05 233.15 Q271.15 232.35 271.05 230.1 L270.4 225.7 269.65 221.55 M291.0 165.75 L291.15 167.05 Q292.2 171.05 298.75 173.25 298.95 174.2 297.9 179.95 296.7 186.8 296.7 189.3 296.8 196.1 298.1 207.35 298.85 213.8 298.7 214.8 293.7 214.65 289.85 210.55 L289.8 209.3 Q289.6 205.7 287.85 198.25 L286.45 192.6 285.25 187.0 Q284.4 185.9 282.7 182.9 283.05 186.7 284.35 192.1 L286.6 201.25 Q280.0 207.75 275.85 214.55 274.0 215.0 269.7 212.85 266.95 211.45 265.65 207.75 264.9 205.75 264.7 203.4 264.7 202.7 265.4 201.3 L265.6 200.9 Q268.2 195.45 271.95 189.35 278.05 179.4 285.15 171.5 287.8 168.6 291.0 165.75 M304.0 153.15 Q305.05 152.8 304.9 151.9 304.75 151.15 303.8 151.15 L303.6 151.15 299.4 151.65 Q298.95 151.7 298.9 151.9 L299.25 152.25 300.95 153.15 302.3 153.4 304.0 153.15 M292.35 143.4 L292.5 143.4 295.25 143.9 300.85 144.35 302.25 144.3 Q306.2 144.0 312.45 141.45 L313.6 141.25 Q314.3 141.25 314.9 141.7 315.55 142.2 315.2 142.8 L314.35 143.5 Q308.85 146.45 306.8 147.15 L301.8 147.8 298.65 147.45 292.45 145.35 Q291.8 145.2 291.5 144.25 291.3 143.4 292.35 143.4 M291.45 140.1 Q291.35 140.1 291.1 140.35 L289.25 142.6 Q288.65 143.4 289.15 144.25 L291.3 147.55 291.6 147.85 Q291.8 147.85 291.8 147.4 L291.8 146.9 Q291.7 146.15 292.45 146.15 L292.7 146.15 295.85 148.0 Q299.65 149.85 302.75 149.9 L302.8 149.9 Q305.85 149.9 310.9 147.0 313.4 145.55 315.3 144.1 L315.7 144.05 Q316.4 144.05 316.75 144.55 L316.8 146.85 317.2 147.15 317.55 146.7 318.45 142.15 Q318.6 141.2 317.8 140.65 L312.8 137.1 312.45 137.0 Q312.05 137.0 312.3 137.5 L312.95 139.1 Q313.1 139.45 312.75 139.9 L312.0 140.45 Q305.15 143.0 301.8 143.4 L300.4 143.45 295.2 142.95 292.55 142.45 291.9 142.05 Q291.6 141.7 291.65 141.3 L291.65 140.6 Q291.75 140.1 291.45 140.1 M293.45 122.25 Q292.7 122.25 292.15 123.25 291.6 124.2 291.55 125.6 291.5 127.0 292.0 128.05 292.5 129.05 293.25 129.05 L293.3 129.05 Q294.05 129.05 294.6 128.1 295.15 127.1 295.2 125.7 295.25 124.3 294.7 123.3 294.2 122.3 293.45 122.25 M285.55 112.65 L286.35 113.05 Q287.45 114.05 288.7 114.4 287.0 117.35 285.9 119.95 284.55 117.75 284.4 116.55 284.15 115.0 284.5 113.8 284.85 112.65 285.55 112.65 M291.05 117.1 L291.55 117.25 295.65 117.1 296.5 116.7 Q296.8 116.35 296.7 115.85 L296.5 114.85 Q296.45 114.1 295.8 114.1 L295.3 114.25 291.45 116.65 Q291.05 116.9 291.05 117.1 M314.6 122.15 L314.55 122.15 Q313.8 122.15 313.25 123.15 312.7 124.1 312.65 125.5 312.6 126.9 313.15 127.95 313.65 128.95 314.4 128.95 315.15 128.95 315.7 127.95 316.25 127.0 316.3 125.6 316.4 124.25 315.85 123.2 315.35 122.2 314.6 122.15 M315.5 113.1 Q314.95 113.1 314.7 113.6 L314.0 114.55 Q313.3 115.55 313.5 115.85 L314.45 116.25 316.35 117.05 318.45 118.25 Q319.6 118.95 319.95 118.95 320.3 117.7 318.2 115.35 L316.0 113.25 315.5 113.1 M304.3 122.4 L304.25 122.4 Q303.75 122.4 303.4 123.25 L301.4 127.25 297.45 132.5 Q296.85 133.2 297.4 134.1 L299.6 137.4 Q300.15 138.0 300.95 138.0 L302.05 137.7 302.55 137.3 Q302.65 137.0 302.4 136.65 L300.55 134.2 Q300.0 133.4 300.45 132.5 L302.55 128.5 Q303.8 126.1 304.55 123.45 304.8 122.5 304.3 122.4 M331.35 292.9 L333.55 289.55 Q339.5 292.3 345.25 288.85 350.5 285.7 352.75 279.4 L353.4 281.7 Q353.65 284.1 352.35 287.35 351.55 289.4 349.75 292.55 346.1 299.1 339.65 302.75 331.8 307.05 328.7 304.0 327.1 302.4 327.9 299.6 328.3 298.25 330.0 295.15 333.2 294.45 337.6 296.65 338.65 297.15 338.7 296.15 338.75 295.2 337.9 294.75 334.35 293.05 331.35 292.9 M333.4 287.45 L328.8 281.9 Q333.85 271.1 337.65 258.25 341.45 261.25 345.0 266.2 347.6 269.85 350.7 275.5 L351.35 276.6 351.25 276.85 Q349.6 283.05 344.6 286.5 339.1 290.3 333.4 287.45 M340.85 222.5 Q341.3 230.2 339.85 239.25 338.7 246.4 336.1 255.6 330.75 274.75 321.4 291.25 318.2 296.9 315.05 300.9 311.85 294.6 307.7 290.1 302.65 284.65 297.0 282.95 299.3 279.4 301.1 272.85 302.95 266.0 304.2 255.95 305.7 244.2 306.0 233.65 306.05 232.85 305.05 232.25 304.05 231.7 304.0 232.65 303.75 240.5 302.95 248.3 297.65 243.0 294.25 236.5 290.5 229.5 289.75 222.6 292.8 224.95 297.3 227.0 306.65 231.3 318.2 230.55 329.75 229.75 338.45 224.2 L340.85 222.5 M368.2 232.1 Q367.9 231.8 366.9 237.95 365.4 244.55 362.7 245.5 L362.1 245.6 361.9 245.5 362.8 239.95 Q363.6 234.45 362.5 234.15 362.35 234.1 361.45 239.15 L359.9 246.05 Q357.95 251.35 356.5 250.85 355.5 250.55 356.1 244.75 L356.2 243.85 356.85 234.4 356.75 233.9 Q356.65 233.7 354.75 234.6 L351.3 236.15 347.9 236.55 Q346.4 236.35 346.8 235.3 L347.2 234.8 348.05 234.25 351.7 231.5 Q352.75 230.45 353.7 228.45 L361.5 228.15 Q366.85 226.6 369.55 220.1 370.75 222.75 371.05 225.1 371.9 232.1 370.4 237.65 369.7 240.35 367.85 240.35 L368.4 236.7 Q369.0 232.85 368.2 232.1 M326.2 192.35 L325.3 193.2 Q336.75 202.85 340.2 207.45 L340.1 208.9 Q337.25 210.95 333.1 212.6 325.9 215.45 317.05 216.2 315.45 213.05 314.5 197.95 313.5 181.8 315.5 176.7 315.95 175.55 316.4 175.4 320.5 175.05 324.5 172.7 328.55 170.4 330.85 167.05 333.45 163.3 332.85 159.6 337.8 163.5 341.0 166.7 349.25 174.85 353.9 182.55 359.4 191.65 363.5 202.6 366.05 209.3 367.55 215.1 L367.65 215.5 Q368.1 217.15 367.95 217.7 367.4 219.85 366.25 221.8 364.2 225.2 361.25 226.05 358.45 226.85 356.6 226.85 L354.9 226.55 351.95 219.95 Q347.55 211.8 336.9 201.6 329.6 194.6 326.2 192.35 M330.45 157.75 Q330.75 159.8 330.35 162.3 329.95 164.8 329.2 165.9 327.2 168.85 323.5 170.95 319.85 173.05 316.2 173.4 312.35 173.9 312.15 187.4 312.05 194.75 313.0 204.6 313.9 213.1 314.95 216.25 315.65 218.25 316.6 218.25 L316.8 218.2 Q331.0 217.1 339.95 211.4 339.95 214.85 340.4 217.5 L340.55 218.8 Q340.5 219.25 339.9 219.9 338.6 221.25 336.15 222.8 331.8 225.55 324.7 227.1 311.45 230.15 300.2 226.2 294.05 224.05 289.6 220.3 L289.9 213.35 Q294.05 216.8 299.05 216.8 299.8 216.8 300.15 216.35 300.75 215.7 300.7 213.7 L300.1 207.1 Q298.8 196.0 298.7 189.3 298.7 186.5 299.9 180.3 L300.8 174.05 Q300.85 172.0 299.85 171.5 L299.7 171.45 Q293.85 169.5 293.1 166.55 292.7 165.2 293.45 163.65 L296.9 161.0 Q298.55 161.95 301.15 162.9 302.5 165.6 305.2 167.0 307.7 168.3 310.95 168.3 316.7 168.3 321.7 164.8 327.0 161.1 327.75 155.8 L330.45 157.75 M330.0 132.3 L330.7 132.85 Q331.35 133.5 331.4 133.95 331.4 134.5 332.0 134.5 332.6 134.5 332.55 133.7 332.5 132.95 331.8 132.2 L330.6 131.25 330.3 131.15 Q329.9 131.15 329.8 131.6 329.65 132.05 330.0 132.3 M334.4 132.35 L334.6 132.15 Q334.7 131.75 334.1 130.8 L332.85 129.1 Q331.8 128.0 330.4 127.35 L330.25 127.35 Q329.8 127.35 329.65 127.8 329.5 128.25 330.1 128.65 L332.05 129.95 333.4 131.4 Q334.15 132.35 334.4 132.35 M329.0 108.15 Q331.7 108.15 332.65 111.05 333.65 114.2 329.65 116.45 L329.2 116.9 Q328.95 117.45 329.6 117.8 332.75 119.75 334.3 121.15 338.2 124.8 338.2 129.6 336.55 125.8 334.2 123.05 331.3 119.9 330.2 119.55 L329.8 119.45 Q329.3 119.45 329.2 119.85 329.05 120.25 329.5 120.5 L330.75 121.5 Q332.25 122.75 333.35 123.9 335.6 126.05 338.1 131.05 L337.9 132.15 337.8 132.1 Q336.0 128.2 333.6 125.85 331.7 123.95 330.3 123.45 L330.1 123.4 Q329.6 123.4 329.6 123.95 329.6 124.55 330.3 124.95 L332.75 126.8 Q334.6 128.65 337.2 132.7 L337.05 133.1 Q336.6 133.15 336.25 133.35 335.55 133.7 336.1 134.5 339.65 137.2 337.95 141.3 336.25 145.3 332.0 145.3 L331.2 145.25 Q326.8 153.25 320.25 157.55 319.55 157.95 319.6 158.25 319.65 158.5 320.3 158.5 322.35 158.5 325.15 156.55 324.7 160.3 319.95 163.25 315.55 166.05 311.4 166.05 309.45 166.05 308.4 165.35 L308.65 165.35 311.95 164.65 Q314.2 163.95 314.05 163.55 L313.8 163.45 310.55 163.75 Q306.35 163.75 301.3 161.55 292.1 157.5 287.65 147.35 283.4 137.65 285.45 127.35 286.75 120.95 290.6 114.5 292.6 114.15 294.55 112.5 L297.05 109.35 Q299.3 106.5 300.1 106.05 L301.1 105.8 Q302.55 105.8 304.5 107.05 L306.4 107.45 Q308.0 107.45 310.65 106.0 311.8 105.4 313.1 105.4 316.5 105.4 319.35 108.7 320.2 109.7 321.65 109.7 322.7 109.7 324.3 109.1 L328.65 108.15 329.0 108.15 M325.0 94.2 Q327.9 94.6 330.35 97.75 333.0 101.25 333.3 101.35 335.25 102.2 337.4 105.25 338.95 107.45 340.05 109.95 342.0 114.35 340.8 121.45 340.2 125.0 339.2 127.7 338.3 123.5 335.3 120.55 L331.35 117.35 334.1 114.75 Q335.6 112.85 335.4 111.45 335.1 109.45 334.0 108.05 332.5 106.15 329.85 106.15 L328.75 106.25 Q327.7 106.4 325.3 107.5 323.0 108.5 322.25 108.5 L321.95 108.45 Q321.6 108.4 318.6 105.1 315.7 102.0 313.9 102.0 L313.1 102.15 309.7 104.25 307.65 105.5 306.1 106.05 305.5 105.95 304.1 105.25 Q302.2 104.3 301.5 104.3 300.5 104.3 299.15 105.05 298.2 105.6 295.85 108.5 L293.45 111.5 Q291.45 113.25 289.45 113.25 288.05 113.25 287.1 112.35 285.25 110.6 284.6 107.75 283.95 104.95 284.75 102.8 285.4 101.05 286.65 99.85 286.45 101.75 287.7 102.7 289.1 103.8 290.85 103.8 293.4 103.8 295.2 101.75 299.7 96.55 301.4 96.15 L302.55 96.0 304.95 96.45 306.95 96.95 Q307.7 96.95 308.25 96.4 L310.0 93.95 Q312.65 89.9 313.8 89.75 L314.1 89.7 Q315.55 89.7 317.7 91.15 L319.05 92.2 Q319.85 92.8 320.55 93.05 L325.0 94.2" fill="#ffffff" fill-rule="evenodd" stroke="none"/>
  </g>
</svg>
