<?xml version="1.0" encoding="UTF-8" standalone="no"?>
<svg xmlns:ffdec="https://www.free-decompiler.com/flash" xmlns:xlink="http://www.w3.org/1999/xlink" ffdec:objectType="shape" height="95.6px" width="79.35px" xmlns="http://www.w3.org/2000/svg">
  <g transform="matrix(1.0, 0.0, 0.0, 1.0, 61.15, 83.65)">
    <path d="M-1.95 -12.6 L-1.95 -12.7 -2.05 -12.8 Q-8.05 -17.8 -9.85 -18.05 L-10.05 -18.1 -10.15 -17.9 Q-12.05 -13.85 -10.85 -9.25 L-10.55 -9.0 Q-10.25 -9.0 -10.25 -9.35 -10.1 -13.2 -9.05 -15.7 L-5.35 -13.55 -2.6 -11.9 -2.4 -11.7 -2.25 -11.95 Q-1.95 -12.3 -1.95 -12.6 M7.7 -3.45 L7.6 -3.3 6.7 -2.0 5.7 -3.05 5.55 -2.75 Q4.9 -1.6 5.15 -0.2 L5.2 0.0 5.4 0.0 Q6.35 0.0 7.45 -0.95 8.4 -1.75 8.75 -2.7 L8.8 -2.9 8.65 -3.0 7.7 -3.45 M0.0 -0.05 L0.05 -0.2 Q0.35 -1.55 -0.5 -2.65 L-0.7 -2.9 -1.55 -1.75 -2.65 -2.95 -2.8 -3.05 -2.95 -2.95 Q-3.35 -2.75 -3.45 -2.75 L-3.75 -2.75 -3.65 -2.45 Q-3.45 -1.5 -2.25 -0.7 -1.25 0.0 -0.45 0.0 L-0.15 0.0 0.0 -0.05 M4.55 -14.35 L8.4 -17.7 Q9.75 -18.45 10.0 -16.7 10.75 -10.4 9.0 -6.5 10.4 -2.25 8.15 0.6 7.9 1.0 8.05 1.25 10.55 4.85 15.85 7.1 18.6 8.05 18.1 10.3 17.75 11.95 15.75 11.95 L12.75 11.3 Q7.55 9.1 5.15 4.7 2.9 6.35 1.4 6.35 -0.05 6.35 -1.8 4.6 -2.7 3.65 -4.05 3.1 -7.2 2.0 -8.4 1.05 -9.55 0.05 -11.15 -2.5 -13.85 -2.35 -16.4 -3.15 -16.65 -3.15 -16.5 -2.85 L-14.15 0.25 Q-12.75 2.1 -12.75 3.2 -12.75 5.2 -16.0 5.2 -18.6 5.2 -21.35 -0.15 L-24.6 -7.75 Q-26.45 -12.4 -28.05 -14.7 -31.05 -16.35 -33.2 -18.8 -34.25 -15.8 -37.15 -13.1 L-34.15 -7.0 Q-30.45 -3.45 -30.45 -2.0 -30.45 -1.2 -31.3 -0.5 -33.6 1.1 -35.8 -0.75 -37.15 -2.0 -43.75 -12.45 -44.65 -13.95 -44.65 -14.8 -44.65 -16.0 -41.9 -17.45 -40.0 -18.3 -40.0 -19.55 -40.0 -20.3 -40.9 -21.8 -46.15 -30.7 -46.15 -34.35 -46.15 -36.4 -44.75 -39.55 -43.45 -42.5 -42.4 -43.4 -47.3 -45.15 -51.65 -48.3 -60.25 -54.5 -61.15 -64.35 -61.2 -73.0 -54.15 -78.65 -49.25 -82.6 -43.8 -83.6 -42.1 -83.9 -41.15 -82.3 -40.25 -80.65 -42.55 -79.7 -48.7 -77.3 -50.1 -76.45 -56.7 -72.4 -56.85 -66.2 -57.0 -56.95 -46.55 -51.35 -41.3 -48.5 -35.35 -47.4 -18.65 -44.7 -11.3 -29.25 -2.85 -25.45 -1.7 -17.2 2.3 -16.15 4.55 -14.35" fill="#ffffff" fill-rule="evenodd" stroke="none"/>
  </g>
</svg>
