<?xml version="1.0" encoding="UTF-8" standalone="no"?>
<svg xmlns:ffdec="https://www.free-decompiler.com/flash" xmlns:xlink="http://www.w3.org/1999/xlink" ffdec:objectType="shape" height="229.85px" width="183.8px" xmlns="http://www.w3.org/2000/svg">
  <g transform="matrix(1.0, 0.0, 0.0, 1.0, -187.25, -84.2)">
    <path d="M324.45 226.8 L324.65 226.9 324.6 228.85 324.4 228.75 324.45 226.8" fill="#000000" fill-rule="evenodd" stroke="none"/>
    <path d="M336.05 152.85 L336.0 152.9 336.05 152.95 338.25 154.05 340.65 155.65 Q352.05 164.3 360.3 177.25 370.75 193.55 365.55 204.4 362.5 210.9 353.5 214.4 346.7 217.1 338.25 207.95 335.9 205.4 334.35 203.15 338.85 199.6 340.25 195.05 341.05 192.25 341.05 188.85 L340.75 182.45 Q348.3 184.85 350.7 190.7 351.0 191.55 352.0 191.6 353.0 191.7 352.6 190.65 350.75 186.25 347.55 183.05 344.0 179.6 339.65 178.6 L335.75 174.1 Q333.45 171.6 331.65 170.25 330.1 169.1 328.95 168.75 L328.65 168.65 328.35 168.65 Q327.45 168.65 326.8 169.3 L326.25 170.4 Q326.35 159.35 326.1 154.05 L326.0 152.55 Q325.8 149.85 325.45 149.35 L321.3 149.65 317.3 150.5 312.9 145.05 312.85 144.35 316.4 145.05 Q326.7 147.35 335.55 152.55 L336.05 152.85 M338.9 182.5 L339.0 188.0 Q338.95 191.05 338.45 193.3 337.6 197.1 333.85 200.4 L331.65 200.1 Q328.3 199.15 323.45 196.25 L317.75 192.65 Q316.2 191.75 316.05 190.25 315.95 189.4 316.3 188.75 L316.4 188.7 319.4 189.8 Q322.25 190.85 323.7 190.85 L325.0 190.55 319.3 188.35 Q312.9 185.85 313.15 182.55 L313.4 181.95 313.6 181.7 313.65 181.65 318.15 182.85 Q322.5 184.0 324.35 184.0 325.45 184.0 325.8 183.65 325.95 183.45 320.9 181.75 315.8 180.05 313.85 179.65 311.1 179.05 310.1 178.55 308.9 177.95 309.5 177.25 310.05 176.65 312.75 176.3 L317.15 176.0 320.15 175.95 327.95 176.75 328.0 176.75 Q328.35 176.75 328.2 173.7 328.05 170.65 328.35 170.65 331.55 171.65 335.1 176.45 L338.9 182.5 M331.1 202.05 L332.05 202.25 332.2 202.95 Q335.75 208.55 340.0 212.15 343.8 215.4 347.7 216.5 L344.05 227.5 Q339.55 219.75 324.85 217.2 L325.5 199.65 Q328.8 201.35 331.1 202.05 M324.45 226.8 L324.8 218.3 Q338.05 221.25 344.05 229.55 L343.5 233.95 343.35 234.4 Q342.15 238.65 340.6 242.55 338.3 237.35 332.95 234.75 329.0 232.8 324.5 232.75 L324.6 228.85 324.65 226.9 324.45 226.8 M339.6 244.9 Q336.05 251.7 330.45 257.25 324.85 262.9 318.15 266.2 311.55 269.5 297.7 266.75 L285.2 263.35 Q288.0 259.15 289.05 255.65 289.3 254.7 288.45 254.75 287.55 254.8 287.25 255.6 L282.45 266.45 Q278.4 275.0 274.5 280.65 271.7 284.75 267.4 288.75 L262.9 292.85 260.55 288.8 260.5 288.8 Q256.55 282.8 250.1 277.5 244.95 273.15 237.3 268.7 240.8 259.4 246.25 249.45 251.4 240.15 256.35 234.85 262.95 227.85 271.05 225.5 282.75 222.1 293.75 230.75 302.75 237.9 308.3 250.05 L308.4 250.3 Q308.75 251.15 309.75 251.2 310.75 251.3 310.3 250.3 L307.55 245.0 306.65 243.35 324.25 240.9 324.45 234.9 Q329.1 234.75 332.95 236.75 338.0 239.4 339.55 244.8 L339.6 244.9 M362.95 264.05 L287.55 283.75 287.2 283.9 Q284.15 285.7 283.05 285.7 L281.95 285.6 277.95 285.5 Q275.45 285.95 274.75 288.15 L273.8 290.5 Q272.3 293.7 271.7 295.95 270.6 299.8 270.95 303.6 271.35 307.75 274.45 311.85 268.55 308.3 256.15 300.2 L256.4 299.95 Q259.75 296.9 260.4 291.8 L262.05 295.0 Q262.25 295.6 262.75 295.85 L263.9 295.7 Q265.5 294.55 269.0 290.8 273.45 286.0 277.05 280.85 279.85 276.85 282.7 270.85 L285.0 265.5 Q304.7 274.6 318.65 268.55 325.9 265.45 331.85 259.3 L334.65 256.2 Q361.25 264.0 362.1 264.0 L362.95 264.05 M360.9 269.05 L361.45 268.75 Q360.95 270.05 360.6 272.05 360.55 272.35 348.4 276.2 336.25 280.1 336.2 280.45 L348.15 278.4 Q360.15 276.0 360.15 276.4 L360.3 278.85 Q360.35 279.25 345.65 283.5 331.05 287.7 331.15 288.1 L346.25 285.45 361.35 282.75 362.65 285.2 Q362.8 285.5 343.35 290.4 323.95 295.35 324.1 295.6 324.35 295.95 344.6 292.15 364.85 288.35 365.1 288.6 L367.4 291.15 328.4 300.05 297.7 307.0 288.6 307.3 Q286.65 306.45 283.9 307.8 L284.45 305.9 Q284.5 305.65 302.65 301.4 L320.8 296.9 Q320.9 296.5 303.15 299.2 285.4 301.95 285.5 301.5 L285.9 298.55 285.9 295.3 Q285.85 295.05 305.25 289.75 324.6 284.4 324.55 284.15 324.5 283.9 304.95 288.2 285.4 292.5 285.35 292.25 L284.1 288.2 Q285.85 287.75 288.4 286.3 L360.55 269.0 Q360.4 269.4 360.9 269.05 M370.95 295.0 Q371.45 296.75 369.3 297.05 L328.8 304.6 Q289.45 311.95 288.65 311.8 L286.25 311.4 Q284.65 311.25 282.4 312.85 281.1 313.8 280.3 314.05 278.55 312.6 277.15 309.85 275.45 306.7 275.15 303.25 274.45 295.5 276.2 291.6 L277.3 288.95 Q277.7 287.75 281.65 288.25 L282.2 288.3 281.4 288.65 279.8 291.8 Q278.1 295.5 277.85 298.25 277.6 301.1 278.9 306.1 L280.25 310.5 Q279.9 311.55 280.75 312.05 L282.4 311.95 284.9 310.3 Q286.65 309.4 287.6 309.75 288.9 310.3 327.1 302.4 L368.65 293.65 Q370.4 293.3 370.95 295.0 M281.5 84.35 Q282.95 83.95 285.35 84.75 L286.95 85.35 288.65 85.8 293.2 85.65 Q296.15 85.25 299.35 87.6 L299.95 88.05 303.2 90.3 Q305.3 90.55 308.15 92.9 L310.6 95.15 312.0 96.7 Q313.0 97.9 313.75 99.45 315.3 102.7 315.85 107.55 316.25 111.15 316.05 114.0 315.15 112.15 313.75 110.75 L310.35 108.15 Q308.85 107.35 305.7 106.2 L307.6 102.95 Q308.5 100.7 307.95 99.4 307.15 97.55 305.7 96.55 303.7 95.1 301.15 95.85 L300.15 96.2 Q299.2 96.6 297.15 98.35 295.25 99.95 294.5 100.15 L294.2 100.25 Q293.85 100.25 290.05 97.95 286.4 95.7 284.7 96.2 284.35 96.25 283.95 96.6 L281.25 99.5 279.65 101.3 278.3 102.25 277.7 102.3 276.2 102.0 273.4 101.85 Q272.45 102.1 271.35 103.2 270.55 104.0 269.15 107.4 L267.65 110.95 Q266.1 113.2 264.25 113.75 262.85 114.1 261.75 113.5 259.5 112.35 258.1 109.75 256.7 107.25 256.85 104.95 257.0 103.15 257.9 101.6 258.25 103.45 259.7 104.05 L263.0 104.25 Q265.45 103.6 266.6 101.1 268.6 96.9 269.95 95.15 270.55 94.3 271.05 94.0 L272.15 93.55 274.6 93.35 276.6 93.25 Q277.35 93.0 277.75 92.35 L278.75 89.55 279.25 88.05 Q280.35 84.8 281.25 84.45 L281.5 84.35 M300.9 97.95 Q303.5 97.2 305.2 99.8 307.05 102.55 303.8 105.8 L303.5 106.35 Q303.4 106.9 304.1 107.1 307.7 108.05 309.55 109.05 312.15 110.4 313.75 112.4 315.05 114.05 315.65 116.1 L313.75 114.0 310.0 110.9 Q306.15 108.65 305.15 108.6 L304.75 108.65 Q304.3 108.75 304.3 109.2 304.25 109.6 304.75 109.75 L306.25 110.35 309.4 111.95 Q311.35 113.0 313.4 114.9 L313.75 115.25 315.9 117.55 316.0 118.6 315.95 118.6 313.75 116.35 Q312.0 114.75 310.2 113.75 307.8 112.45 306.35 112.35 L306.1 112.35 Q305.65 112.5 305.85 113.0 306.0 113.6 306.75 113.8 308.4 114.2 309.65 114.9 L313.75 117.9 315.55 119.35 315.5 119.75 314.75 120.2 Q314.15 120.8 314.95 121.4 319.1 123.0 318.55 127.4 318.05 131.7 313.95 132.85 L313.2 133.05 Q312.05 137.8 310.15 141.65 L310.0 141.45 Q309.4 140.75 308.6 141.1 L299.55 144.45 289.8 147.3 289.7 146.7 Q289.4 145.95 288.45 146.25 L288.25 146.3 284.35 147.95 283.95 148.3 284.1 148.5 280.6 149.0 274.15 149.5 271.9 147.05 Q265.15 138.9 264.3 128.4 L264.25 127.4 Q263.9 121.4 265.7 114.6 267.5 113.8 268.95 111.6 L270.5 107.9 Q271.9 104.55 272.5 103.9 272.85 103.55 273.4 103.4 L277.05 103.65 278.95 103.5 Q280.55 103.05 282.65 100.95 283.5 100.1 284.85 99.7 288.1 98.8 291.8 101.15 292.85 101.85 294.25 101.5 295.25 101.2 296.65 100.2 297.8 99.3 300.55 98.1 L300.9 97.95 M225.25 116.9 L226.5 125.35 227.15 115.15 Q227.3 123.45 229.65 132.95 230.85 137.55 229.85 144.6 229.3 148.6 228.25 152.55 L227.85 154.05 227.8 154.1 227.15 155.9 227.2 154.05 227.3 152.55 227.45 150.45 227.7 145.0 226.85 150.4 226.55 152.55 226.3 154.05 225.95 155.8 Q225.85 155.8 225.7 154.05 L225.6 152.55 225.45 151.05 Q225.1 146.3 224.95 146.3 L224.65 151.1 224.6 152.55 224.5 154.05 224.3 155.85 224.05 154.05 223.85 152.55 223.65 151.15 223.0 146.5 223.05 151.3 223.1 152.55 223.15 154.05 223.1 156.1 222.8 154.05 222.6 152.55 218.1 122.1 219.65 122.0 221.1 127.95 221.4 120.45 222.4 119.5 223.75 125.75 224.35 117.75 225.25 116.9 M216.3 122.25 L221.5 153.3 219.0 152.25 Q217.5 143.95 216.15 135.45 213.5 118.5 214.4 117.6 215.35 116.7 216.65 118.65 L217.75 120.8 216.3 122.25 M232.1 132.3 Q229.8 123.55 229.7 115.85 231.35 118.3 241.9 129.2 251.7 140.6 252.2 148.3 246.65 148.45 239.55 150.45 235.95 151.45 233.55 152.55 231.95 153.3 230.9 154.05 L229.45 155.4 230.15 154.05 230.7 152.55 Q232.05 148.7 232.5 143.0 233.05 136.05 232.1 132.3 M235.85 159.65 Q238.25 158.35 243.05 157.45 238.75 157.1 234.85 158.55 L231.65 159.95 231.2 159.65 Q230.95 159.5 233.95 157.85 237.1 156.15 239.1 155.5 236.05 155.15 232.65 157.0 L229.8 158.85 228.4 158.5 228.1 158.15 229.65 156.9 Q231.7 155.3 234.2 154.05 235.9 153.2 237.8 152.55 245.4 149.95 256.2 150.35 L272.85 151.5 276.3 151.45 277.3 151.4 Q290.25 150.85 308.7 143.75 L309.75 144.85 304.3 146.85 311.0 146.25 311.45 146.75 305.15 148.05 312.35 147.75 314.4 149.9 234.65 160.75 Q233.6 160.85 235.85 159.65 M228.75 161.65 Q229.85 164.05 232.5 174.1 235.7 186.15 235.35 190.1 229.0 188.8 224.75 185.95 220.95 183.4 222.1 182.2 L222.4 181.05 222.4 181.0 Q215.3 156.85 216.15 155.25 216.6 154.4 218.0 154.5 219.1 154.6 220.3 155.15 216.2 157.5 218.8 159.55 L222.0 161.85 Q223.3 162.55 225.15 162.55 227.3 162.55 228.75 161.65 M229.0 194.2 Q232.8 195.9 236.4 195.4 L237.75 201.5 238.25 203.95 244.45 233.35 Q239.2 231.8 235.7 229.75 230.1 226.45 231.95 223.15 L232.1 222.3 226.05 192.6 229.0 194.2 M307.35 116.1 Q306.95 116.25 306.9 116.7 306.85 117.15 307.55 117.4 L309.8 118.1 311.5 119.15 312.75 119.8 312.85 119.55 Q312.85 119.15 312.0 118.35 311.25 117.6 310.35 117.05 308.95 116.2 307.5 116.1 L307.35 116.1 M308.5 120.9 L309.3 121.3 Q310.15 121.75 310.3 122.15 L310.6 122.5 311.0 122.5 Q311.65 122.3 311.35 121.6 311.05 120.85 310.2 120.35 309.3 119.8 308.75 119.75 L308.5 119.75 Q308.1 119.85 308.05 120.35 308.05 120.8 308.5 120.9 M287.7 115.7 Q288.8 114.55 291.65 112.85 294.2 111.35 294.2 111.1 293.35 110.65 289.55 112.2 286.3 113.55 284.85 114.55 L283.05 114.45 281.65 114.05 Q281.35 114.3 283.4 116.3 285.45 118.3 285.85 118.2 L286.5 117.35 287.7 115.7 M287.95 120.6 Q289.4 121.35 290.6 120.95 291.4 122.1 292.35 122.6 L293.95 122.75 Q294.75 122.3 294.8 120.95 294.8 119.55 294.0 118.05 L293.2 116.8 Q292.8 118.05 291.9 118.55 L290.45 119.4 290.3 119.45 288.8 119.35 Q288.1 118.95 287.75 119.55 L287.65 120.1 287.95 120.6 M292.3 131.4 Q290.0 132.2 288.75 135.5 288.15 137.15 287.95 138.7 285.25 139.2 280.8 142.3 279.2 143.25 276.9 143.1 L274.15 142.55 273.5 142.65 Q273.35 143.1 273.75 143.45 274.65 144.2 276.7 144.9 L281.35 144.8 284.4 142.9 Q286.8 141.4 288.6 140.55 292.3 138.8 296.45 137.55 L296.55 137.5 299.5 137.6 299.9 138.2 300.5 138.75 Q301.2 138.95 301.4 138.4 301.0 137.2 299.95 136.65 L298.4 136.3 297.65 136.15 Q297.45 134.6 296.05 132.8 294.35 130.75 292.3 131.4 M290.65 134.8 Q291.55 133.0 292.75 132.65 293.75 132.4 294.7 133.15 296.0 134.3 295.95 136.6 L294.15 137.1 Q294.7 135.35 293.95 134.2 L293.1 134.75 Q293.75 135.9 292.8 137.6 L292.25 137.8 289.7 138.8 289.8 138.05 Q289.8 136.5 290.65 134.8 M269.7 119.7 L274.85 121.15 275.75 120.95 276.15 120.15 276.25 119.15 276.1 117.75 Q275.85 116.8 275.4 116.95 L274.4 118.85 269.65 119.05 Q268.6 119.45 269.7 119.7 M274.05 122.2 Q273.75 123.4 272.85 123.9 L272.55 124.1 272.15 124.3 271.75 124.55 270.7 124.6 Q269.9 124.4 269.75 125.1 L269.8 125.65 270.25 126.05 272.15 126.0 Q272.75 126.95 273.55 127.4 L273.6 127.45 275.0 127.6 275.3 127.4 Q275.7 127.0 275.7 126.1 275.75 124.95 275.1 123.7 L274.05 122.2 M281.0 118.45 Q280.6 118.6 280.4 119.5 L279.6 123.95 278.35 127.4 277.25 130.0 Q276.9 131.0 277.6 131.6 L280.65 134.15 282.1 134.35 283.05 133.8 283.45 133.3 283.15 132.7 280.7 130.8 280.2 130.1 Q280.0 129.65 280.1 129.25 L281.05 124.8 281.5 121.1 281.6 119.4 Q281.6 118.35 281.05 118.45 L281.0 118.45 M259.65 115.65 Q259.65 114.45 260.35 114.25 L261.25 114.4 Q262.65 115.15 263.85 115.05 263.05 118.3 262.7 121.15 260.9 119.55 260.3 118.3 259.65 116.9 259.65 115.65 M270.5 160.3 L272.95 160.0 288.85 158.25 299.9 157.05 303.85 156.65 304.9 156.5 306.2 157.7 321.6 171.4 321.5 174.0 320.15 173.95 317.15 174.0 Q309.85 174.0 308.05 175.9 L308.0 175.95 Q306.95 177.15 307.45 178.5 307.95 180.1 311.05 181.0 L311.35 181.65 311.2 182.2 311.2 182.4 Q310.95 185.7 314.4 188.05 313.75 189.65 314.25 191.35 314.8 193.25 316.7 194.35 L318.75 195.65 321.0 197.1 320.7 225.1 320.65 227.05 320.55 238.15 305.1 240.65 Q300.7 234.0 295.2 229.6 288.65 224.25 281.4 222.85 266.05 219.9 253.45 234.4 L250.15 238.65 242.5 201.55 242.1 199.6 242.0 199.15 Q235.05 165.55 235.3 165.0 235.6 164.25 269.9 160.35 L270.5 160.3 M322.1 160.05 Q322.4 165.1 322.05 168.5 319.85 165.0 315.25 160.65 311.95 157.5 309.95 156.05 L316.05 155.0 318.6 154.7 321.55 154.5 Q321.9 155.6 322.1 160.05 M246.55 244.15 Q244.65 247.3 242.75 251.05 L241.5 249.95 Q238.35 246.8 237.9 243.4 L237.15 234.65 239.75 236.0 Q242.8 237.5 244.9 237.35 L246.55 244.15 M248.8 289.5 L238.2 294.35 237.65 293.8 Q225.3 281.85 222.55 271.7 221.7 268.45 224.5 267.7 226.85 267.05 229.9 268.3 234.7 270.3 239.45 275.6 246.05 283.7 248.95 289.4 L248.8 289.5 M250.6 289.0 Q246.85 282.0 240.7 274.5 L237.75 271.6 Q244.55 275.65 249.1 279.3 254.95 283.9 258.55 288.9 258.65 296.15 253.95 299.4 254.3 297.15 253.05 293.95 L250.6 289.0 M251.35 295.05 Q251.75 296.15 251.95 297.6 252.2 299.55 251.45 299.95 L249.55 300.8 247.5 300.75 Q244.15 299.85 240.05 296.1 L250.0 291.5 251.35 295.05 M229.6 222.35 Q227.4 226.75 230.7 231.45 233.5 235.45 234.85 235.35 L234.95 243.8 Q237.35 249.65 240.3 252.4 233.4 255.15 226.7 261.15 224.1 254.15 219.15 246.05 L217.9 244.2 214.0 239.8 Q211.25 237.1 207.5 234.3 213.35 227.0 220.85 219.25 L227.6 212.6 229.6 222.35 M211.5 239.8 Q213.95 242.05 215.75 244.2 L217.5 246.6 Q220.7 251.55 223.1 256.95 221.65 259.1 218.4 259.45 215.0 259.85 214.45 257.05 L213.95 254.55 Q213.55 253.15 212.55 252.45 211.7 251.85 209.65 252.05 L206.85 251.95 Q205.7 251.7 204.15 250.9 197.45 247.45 192.2 241.8 186.35 235.4 187.4 229.4 187.7 227.45 189.95 227.8 190.85 227.9 193.55 229.0 199.1 231.15 205.7 235.1 L211.5 239.8 M226.75 265.3 Q222.95 264.6 221.1 266.75 219.35 268.8 221.45 274.0 222.25 276.0 223.7 278.5 L220.6 276.4 Q219.15 274.1 217.9 270.45 216.3 265.7 216.25 261.15 L220.15 261.5 Q222.55 261.1 224.15 259.4 L225.5 263.05 226.2 263.9 227.2 263.95 Q234.05 257.6 240.95 254.65 L237.4 262.4 235.05 268.2 234.85 269.2 232.5 267.6 Q229.65 265.85 226.75 265.3" fill="#ffffff" fill-rule="evenodd" stroke="none"/>
  </g>
</svg>
