<?xml version="1.0" encoding="UTF-8" standalone="no"?>
<svg xmlns:ffdec="https://www.free-decompiler.com/flash" xmlns:xlink="http://www.w3.org/1999/xlink" ffdec:objectType="shape" height="214.55px" width="98.6px" xmlns="http://www.w3.org/2000/svg">
  <g transform="matrix(1.0, 0.0, 0.0, 1.0, -231.85, -91.6)">
    <path d="M250.0 289.4 Q251.6 290.05 254.15 290.75 258.35 291.9 261.55 292.1 L271.7 291.65 Q271.65 293.45 270.45 294.3 269.45 295.05 266.0 295.05 L264.7 293.55 264.6 293.4 264.4 293.45 Q258.6 295.05 254.2 295.45 247.55 295.95 241.2 294.4 L240.7 294.25 Q239.8 294.0 239.7 293.7 239.7 293.1 241.7 292.1 243.1 291.4 250.0 289.4 M293.7 198.45 L294.6 200.2 Q291.4 207.65 291.4 213.05 L290.55 212.9 290.05 212.55 289.85 212.15 Q289.95 207.85 291.25 197.95 L293.7 198.45 M300.35 173.0 L297.15 173.2 Q296.7 173.2 296.45 173.7 L295.5 176.35 Q294.6 179.2 294.6 180.75 L296.25 180.75 Q296.25 178.9 297.8 174.8 L299.4 174.7 Q298.6 178.85 297.35 180.7 L298.7 181.6 Q300.35 179.1 301.2 173.95 L301.0 173.25 Q300.75 173.0 300.35 173.0 M297.2 171.65 Q299.65 171.3 302.25 172.65 305.65 174.5 307.6 178.75 309.35 182.55 309.65 186.9 309.95 191.45 308.5 194.9 L307.15 197.25 305.45 199.0 Q301.3 202.3 298.55 201.45 296.8 200.95 295.55 198.55 L298.3 198.5 298.85 198.2 299.05 197.65 Q298.95 196.85 298.2 196.85 295.2 196.85 291.15 195.9 286.2 194.65 285.45 192.95 284.55 190.8 285.05 189.55 L285.55 188.8 287.45 189.9 Q289.8 191.15 293.7 191.25 L297.35 191.1 Q298.05 191.0 298.05 190.25 297.95 189.5 297.2 189.5 L296.05 189.55 290.65 189.1 288.2 188.4 287.2 187.7 Q285.95 186.55 286.1 184.6 L286.45 183.6 Q287.85 182.65 289.0 180.7 289.35 181.65 290.15 182.5 291.75 184.15 294.7 184.85 L298.75 185.15 Q301.75 184.65 304.35 175.65 L302.8 175.2 Q301.9 178.3 300.7 180.75 299.4 183.4 298.5 183.55 L295.05 183.25 Q292.6 182.65 291.35 181.35 289.95 179.95 290.3 177.75 290.9 174.05 293.25 172.7 294.35 172.0 297.2 171.65 M282.5 180.2 Q281.9 179.1 282.05 178.55 L283.65 177.85 286.0 176.9 Q287.25 176.15 287.5 175.05 288.1 172.3 290.2 171.0 291.4 170.25 292.9 170.1 289.6 172.0 288.65 177.45 288.5 178.25 288.6 179.2 L288.05 179.3 Q286.2 180.5 285.2 182.45 L284.7 182.55 Q284.15 182.45 283.55 181.75 L282.5 180.2 M253.45 153.0 Q256.9 151.75 258.95 156.25 259.8 158.35 258.15 164.6 256.8 164.95 254.8 167.05 253.8 168.2 253.1 170.0 L252.55 171.55 Q252.55 172.2 253.15 172.35 253.75 172.45 254.0 171.9 L255.2 168.95 Q257.1 166.35 260.85 167.2 264.95 168.2 266.95 170.05 268.4 171.35 268.9 173.35 269.15 174.4 268.8 176.25 268.4 178.3 267.5 179.65 266.5 181.05 265.4 181.2 L261.85 180.95 Q259.65 180.4 258.25 179.25 256.9 178.1 256.8 176.75 L257.15 173.8 Q257.4 171.45 256.9 171.45 256.75 171.45 255.95 173.45 255.15 175.55 255.1 176.15 255.1 178.2 256.2 180.25 257.85 183.25 261.15 183.45 L265.75 183.65 Q265.2 185.75 264.4 186.65 263.6 187.6 259.8 188.25 255.45 188.95 253.35 187.4 L252.35 187.5 Q251.8 187.95 252.25 188.5 L254.45 190.3 Q257.5 191.6 262.05 189.65 262.55 190.45 261.85 192.2 261.45 193.25 257.8 194.25 L251.1 195.45 Q248.9 193.9 247.4 192.2 L246.0 190.0 Q245.65 189.4 245.0 189.7 244.45 190.05 244.6 190.7 244.95 191.6 246.15 193.1 L249.0 197.55 Q249.25 198.0 249.8 197.9 L258.4 196.55 257.5 197.85 Q256.55 198.95 253.9 199.4 250.95 199.9 249.0 198.85 245.15 196.8 243.05 193.4 240.75 189.75 241.95 186.55 243.1 183.6 245.0 181.9 L246.75 180.75 247.0 180.25 Q247.05 179.65 246.25 178.55 L245.3 177.0 Q244.9 175.25 245.3 174.65 L247.75 172.0 Q251.55 168.15 251.8 167.0 252.1 165.7 251.3 159.4 L251.1 158.25 Q250.8 155.9 251.2 154.9 251.65 153.65 253.45 153.0 M264.3 172.05 L264.1 171.25 262.15 169.35 261.65 169.25 261.25 169.7 260.45 172.55 Q259.65 175.65 259.7 177.5 L260.9 177.45 Q260.9 175.45 262.05 171.3 L263.05 172.25 Q262.35 176.5 261.6 178.1 L262.6 179.0 263.75 175.2 264.3 172.05 M270.3 161.15 Q271.2 162.4 273.0 164.25 L275.75 166.6 275.95 166.65 276.3 166.85 Q276.95 167.25 276.45 168.1 275.55 170.05 273.8 175.05 271.45 181.65 270.2 186.8 268.95 191.9 268.0 199.65 L267.2 207.45 267.2 207.6 267.1 208.65 Q264.9 208.05 263.1 206.8 L262.7 193.75 Q264.05 193.15 264.35 192.45 264.5 191.9 264.0 190.35 L263.2 188.55 Q264.95 188.4 265.6 187.65 266.75 186.35 267.4 183.35 L267.5 182.95 Q267.6 182.45 267.15 182.2 L268.75 180.55 Q269.85 178.9 270.25 176.45 270.65 174.4 270.4 173.0 269.85 169.6 266.6 167.6 264.45 166.25 261.45 165.7 262.95 164.3 266.65 162.55 270.15 160.85 270.3 161.15 M277.05 157.5 L278.75 158.8 279.15 161.05 Q279.55 162.05 281.6 163.85 282.65 164.75 285.5 165.4 289.95 166.45 296.6 165.5 299.85 165.05 302.95 162.75 305.4 160.95 305.95 159.8 309.6 160.1 314.15 162.15 311.9 165.85 305.8 167.9 301.65 169.3 299.05 169.3 L295.25 169.95 292.9 169.45 290.9 169.3 289.0 169.6 Q287.7 170.1 286.5 172.7 285.45 175.4 285.0 175.95 L282.3 176.55 Q280.25 176.85 280.25 178.95 280.25 181.25 282.0 182.7 L283.75 183.7 Q283.35 184.65 283.9 186.2 L284.5 187.6 283.4 189.35 Q282.7 191.65 284.5 194.2 285.8 196.1 289.6 197.85 L288.7 204.2 Q287.8 210.9 287.85 212.6 287.95 214.3 289.9 214.75 L291.85 214.85 Q292.5 223.1 301.85 223.6 306.55 223.85 311.1 222.45 L312.0 225.7 Q306.95 228.65 300.2 229.85 292.2 231.25 283.3 229.8 277.2 228.85 270.5 225.25 264.6 222.05 263.2 219.85 L262.75 208.1 267.7 209.9 Q268.6 210.2 269.25 209.7 L269.85 208.65 269.95 207.15 269.95 207.0 270.55 199.4 Q271.3 191.75 272.4 186.65 273.55 181.35 275.7 174.75 277.4 169.7 278.1 168.2 278.9 166.5 277.0 165.35 274.6 163.85 271.4 160.5 274.3 158.5 277.05 157.5 M276.7 145.6 Q276.45 145.7 276.8 146.05 L277.95 146.45 280.0 146.8 Q280.75 146.9 281.55 147.85 282.2 149.15 282.5 149.15 L283.55 149.05 Q283.85 148.75 283.95 147.95 283.95 147.45 282.85 146.95 281.65 146.1 281.3 146.05 L277.25 145.65 276.7 145.6 M278.4 119.3 Q277.15 119.35 276.35 120.0 275.9 120.35 276.6 120.45 L279.0 120.85 283.8 121.05 Q283.15 119.75 282.0 119.2 280.15 118.1 279.25 118.0 278.85 118.0 278.75 118.7 L278.4 119.3 M313.1 135.25 Q312.7 135.15 312.45 135.55 312.15 135.9 312.5 136.25 L313.0 137.0 313.4 138.25 Q313.25 138.8 313.8 138.9 314.45 139.1 314.6 138.3 314.7 137.7 314.25 136.65 L313.35 135.4 313.1 135.25 M314.15 131.6 L314.0 131.55 Q313.6 131.4 313.35 131.8 313.05 132.2 313.55 132.75 L315.1 134.55 316.0 136.3 Q316.5 137.4 316.75 137.5 L316.95 137.35 Q317.15 137.0 316.8 135.9 L316.05 133.95 Q315.4 132.6 314.15 131.6 M290.8 144.15 L287.45 144.4 Q285.7 144.25 284.55 143.35 283.2 142.0 280.8 141.8 L276.95 141.1 Q276.05 140.85 275.15 139.55 L274.25 138.0 Q274.4 136.95 275.55 137.5 L278.25 138.65 Q281.5 140.15 283.95 140.6 287.65 141.2 295.45 139.65 L298.0 139.6 298.35 140.05 298.35 140.65 297.55 141.5 Q292.65 144.15 290.8 144.15 M295.6 135.15 L295.35 135.0 295.15 135.25 Q295.0 135.35 295.1 135.55 L295.7 137.1 Q296.15 137.6 295.6 138.0 L295.1 138.55 Q286.7 140.05 283.75 139.5 281.65 139.35 278.65 137.8 L275.95 136.5 Q275.0 136.2 275.3 135.05 L275.4 134.5 Q275.65 134.3 275.4 134.05 275.55 133.65 274.95 134.15 L272.7 135.7 Q271.95 136.55 272.1 137.3 L273.2 141.05 Q273.65 142.05 273.95 141.1 L274.0 140.65 274.7 141.35 276.35 143.0 Q277.6 143.7 280.7 144.5 283.35 144.75 285.65 146.0 289.2 148.15 294.15 145.35 296.35 144.2 298.55 141.9 299.3 141.5 300.0 142.35 L300.1 144.6 Q300.8 145.2 300.85 144.4 L301.45 139.8 Q301.6 138.75 300.7 138.5 L295.6 135.15 M301.4 122.5 Q300.6 121.95 299.5 123.05 298.85 123.6 297.75 125.45 297.1 127.35 297.2 128.4 297.05 129.7 297.9 130.1 298.8 130.65 299.9 129.7 300.8 128.95 301.5 127.15 302.35 125.5 302.1 124.2 302.25 122.8 301.4 122.5 M286.25 114.75 Q287.15 114.25 287.05 114.15 286.4 113.0 285.05 112.75 L282.5 112.95 Q281.9 113.15 281.25 113.55 L281.05 113.75 281.35 113.75 283.55 113.7 Q284.65 114.05 285.25 115.05 L286.25 114.75 M291.55 119.95 Q291.05 119.75 290.45 120.55 L288.0 123.4 286.85 124.5 282.35 127.95 282.15 128.2 Q281.65 128.85 281.9 129.5 L283.15 133.3 283.5 133.65 283.5 133.7 283.7 133.85 Q284.45 134.45 285.45 134.2 L286.05 133.95 286.1 133.3 284.85 130.0 Q284.75 129.25 285.25 128.75 L288.3 125.45 Q290.1 123.4 291.5 121.05 292.0 120.2 291.55 119.95 M309.4 115.75 Q308.1 111.65 304.95 112.0 302.4 112.45 300.3 115.15 300.1 115.45 299.3 114.75 298.95 113.9 298.6 114.25 L298.75 115.45 299.25 116.85 301.75 115.9 Q304.2 114.85 305.3 114.9 308.1 115.6 308.65 117.35 L308.85 117.9 Q309.0 118.0 309.35 117.7 309.75 116.9 309.4 115.75 M305.55 106.55 Q308.75 107.35 310.7 111.35 311.35 112.6 312.65 112.95 L315.35 113.05 319.8 113.3 320.15 113.35 Q322.75 114.1 322.9 117.2 323.05 120.5 318.55 121.6 318.3 121.6 318.0 121.9 317.6 122.3 318.15 122.85 320.5 125.2 321.8 127.35 324.6 132.0 323.3 136.55 322.85 132.75 321.2 129.15 319.15 125.35 318.25 124.7 L317.9 124.5 Q317.45 124.4 317.2 124.75 316.95 125.1 317.3 125.45 L318.3 126.75 320.15 129.75 Q321.75 132.45 322.8 137.9 L322.35 138.9 322.3 138.85 Q321.55 134.55 319.9 131.7 318.5 129.35 317.3 128.5 L317.15 128.4 Q316.7 128.3 316.55 128.8 316.4 129.35 316.9 129.95 318.2 131.25 318.8 132.4 320.05 134.55 321.55 139.25 L321.3 139.6 320.45 139.6 Q319.65 139.75 320.0 140.7 322.7 144.25 320.0 147.7 317.3 151.1 313.2 150.0 L312.45 149.75 Q305.95 156.35 298.6 158.7 297.85 158.9 297.8 159.2 L298.4 159.6 Q300.25 160.2 303.55 159.05 302.15 162.55 296.8 164.15 291.85 165.7 287.8 164.6 285.95 164.05 285.1 163.05 L285.35 163.15 288.7 163.35 Q291.05 163.25 291.0 162.85 L290.85 162.7 289.7 162.55 287.6 162.15 Q283.6 161.05 279.25 157.5 271.45 151.2 269.85 140.25 268.35 129.75 273.05 120.35 276.05 114.45 281.45 109.35 283.3 109.55 285.8 108.45 L289.0 106.1 Q291.95 103.9 292.8 103.7 L293.85 103.75 Q295.25 104.15 296.8 105.85 297.65 106.5 298.55 106.7 L303.0 106.45 305.55 106.55 M240.5 186.0 Q239.0 189.9 240.85 194.1 242.7 198.25 246.75 200.4 248.85 201.55 252.4 201.15 255.7 200.85 257.75 199.6 L258.85 198.55 259.0 198.5 Q260.25 196.9 260.25 195.6 L260.1 195.15 261.3 194.6 261.15 201.55 Q258.9 205.45 254.7 208.7 250.0 212.3 246.15 212.2 240.05 212.0 235.45 206.15 231.1 200.65 232.0 195.85 232.5 193.1 236.1 189.1 L241.7 183.2 240.5 186.0 M325.55 296.2 Q327.3 299.75 327.2 300.85 326.95 305.35 321.65 306.1 318.45 306.55 314.45 304.0 311.15 301.9 310.1 300.05 309.4 299.0 309.8 296.95 L320.75 297.35 Q323.15 297.2 325.55 296.2 M326.0 281.95 Q327.0 292.65 326.65 293.6 326.4 294.1 324.15 294.65 L319.85 295.3 Q317.5 295.45 313.9 295.2 309.4 294.9 308.05 294.1 L305.0 285.8 Q301.45 275.45 300.1 272.25 296.2 262.6 289.65 250.65 L283.8 240.45 283.35 240.7 285.4 246.4 282.7 252.85 Q280.0 259.6 278.3 264.95 275.7 273.35 272.3 289.55 L271.9 289.85 262.45 290.3 256.7 289.55 Q253.85 288.75 252.0 286.95 255.1 265.55 256.55 256.75 260.8 230.4 262.2 222.65 267.45 227.15 278.5 230.35 287.75 232.95 297.55 231.9 306.65 230.95 313.05 227.35 L318.35 244.25 Q322.1 256.7 323.3 262.6 324.85 270.1 326.0 281.95 M324.5 173.9 Q329.35 181.5 327.55 194.8 325.8 207.45 320.05 213.95 313.35 221.55 306.55 221.9 L301.05 221.6 Q298.65 221.0 296.6 219.1 293.4 216.2 293.85 210.1 294.1 206.2 295.7 202.0 299.4 206.05 303.15 204.0 306.8 202.05 309.05 198.7 311.45 195.1 311.9 190.3 314.95 193.55 314.7 199.3 314.6 201.3 313.1 206.5 311.95 210.35 312.8 210.45 313.25 210.5 314.45 207.7 315.75 204.5 316.35 201.0 318.05 190.65 311.7 186.35 L311.15 186.0 Q310.75 181.7 309.1 178.05 306.5 172.25 301.35 170.35 304.75 170.25 309.1 168.35 313.8 166.25 315.85 163.6 318.3 165.2 320.65 167.85 322.9 170.35 323.8 172.25 321.8 172.8 319.4 174.35 314.5 177.4 313.15 183.75 315.85 178.5 319.8 175.65 323.05 173.35 324.5 173.9 M329.0 112.8 Q329.85 115.3 330.3 118.05 331.0 122.75 327.95 129.35 326.45 132.6 324.75 134.95 325.05 130.55 322.9 127.0 L319.95 122.9 Q321.75 122.2 323.3 121.1 325.25 119.65 325.45 118.25 325.7 116.3 325.0 114.65 324.05 112.4 321.5 111.7 L320.4 111.5 316.75 111.75 313.55 111.95 313.25 111.85 Q312.95 111.7 310.9 107.7 308.95 103.9 307.25 103.45 L306.4 103.4 304.4 103.95 302.55 104.5 300.25 105.2 298.6 105.3 298.05 105.05 296.9 104.0 295.75 103.0 Q295.2 102.55 294.6 102.4 L292.2 102.5 Q291.1 102.75 288.1 104.95 L285.0 107.2 Q282.6 108.35 280.65 107.85 279.25 107.45 278.65 106.35 277.35 104.15 277.45 101.2 277.55 98.35 278.9 96.5 279.95 94.95 281.5 94.15 280.85 95.9 281.75 97.2 282.8 98.65 284.5 99.1 286.95 99.75 289.25 98.25 294.95 94.45 296.7 94.5 L297.85 94.7 Q298.8 94.95 300.05 95.75 L301.85 96.75 303.25 96.55 305.6 94.7 Q309.1 91.45 310.35 91.6 L310.65 91.65 Q311.95 92.05 313.75 94.0 L314.75 95.35 316.0 96.6 Q318.3 98.2 319.95 98.9 322.65 100.0 324.2 103.75 L326.1 108.0 Q327.75 109.3 329.0 112.8" fill="#ffffff" fill-rule="evenodd" stroke="none"/>
  </g>
</svg>
